<svg xmlns="http://www.w3.org/2000/svg" viewBox="0 0 1389 470">
<defs>
  <linearGradient id="g" x1="0" y1="1" x2="0.28" y2="0">
    <stop offset="0" stop-color="#FF7A1A"/>
    <stop offset="1" stop-color="#C7F53E"/>
  </linearGradient>
  <radialGradient id="glow" cx="0.5" cy="0.42" r="0.6">
    <stop offset="0" stop-color="#FF7A1A" stop-opacity="0.20"/>
    <stop offset="1" stop-color="#FF7A1A" stop-opacity="0"/>
  </radialGradient>
</defs>
<rect width="1389" height="470" rx="60" fill="#F3F4F0"/>

<g transform="translate(250,231.0) scale(1.66)">
    <circle cx="0" cy="0" r="118" fill="none" stroke="#3A4350" stroke-opacity="0.55" stroke-width="4.5"/>
    <circle cx="0" cy="-118" r="9.5" fill="#C7F53E"/>
    <circle cx="96.6" cy="67.6" r="10.5" fill="#FF7A1A"/>
    <circle cx="-102" cy="59" r="9.5" fill="#FFB020"/>
    <path d="M-52 60 L0 -52 L52 60" fill="none" stroke="url(#g)" stroke-width="27" stroke-linecap="round" stroke-linejoin="round"/>
    <circle cx="0" cy="-77" r="17.5" fill="#C7F53E"/>
  </g>
<path d="M386 710Q511 710 600.0 644.0Q689 578 719 464H531Q510 508 471.5 531.0Q433 554 384 554Q305 554 256.0 499.0Q207 444 207 352Q207 260 256.0 205.0Q305 150 384 150Q433 150 471.5 173.0Q510 196 531 240H719Q689 126 600.0 60.5Q511 -5 386 -5Q284 -5 203.5 40.5Q123 86 78.0 167.0Q33 248 33 352Q33 456 78.0 537.5Q123 619 203.5 664.5Q284 710 386 710Z" fill="#11151C" fill-opacity="1.0" transform="translate(500.00,253.00) scale(0.15000,-0.15000)"/><path d="M499 124H237L195 0H16L270 702H468L722 0H541ZM455 256 368 513 282 256Z" fill="#11151C" fill-opacity="1.0" transform="translate(620.30,253.00) scale(0.15000,-0.15000)"/><path d="M693 351Q693 248 647.5 168.0Q602 88 518.5 44.0Q435 0 325 0H62V702H325Q436 702 519.0 658.0Q602 614 647.5 534.5Q693 455 693 351ZM519 351Q519 448 465.0 502.0Q411 556 314 556H233V148H314Q411 148 465.0 201.0Q519 254 519 351Z" fill="#11151C" fill-opacity="1.0" transform="translate(736.85,253.00) scale(0.15000,-0.15000)"/><path d="M233 565V423H462V291H233V137H492V0H62V702H492V565Z" fill="#11151C" fill-opacity="1.0" transform="translate(851.90,253.00) scale(0.15000,-0.15000)"/><path d="M690 0H519L233 433V0H62V702H233L519 267V702H690Z" fill="#11151C" fill-opacity="1.0" transform="translate(939.05,253.00) scale(0.15000,-0.15000)"/><path d="M386 710Q511 710 600.0 644.0Q689 578 719 464H531Q510 508 471.5 531.0Q433 554 384 554Q305 554 256.0 499.0Q207 444 207 352Q207 260 256.0 205.0Q305 150 384 150Q433 150 471.5 173.0Q510 196 531 240H719Q689 126 600.0 60.5Q511 -5 386 -5Q284 -5 203.5 40.5Q123 86 78.0 167.0Q33 248 33 352Q33 456 78.0 537.5Q123 619 203.5 664.5Q284 710 386 710Z" fill="#11151C" fill-opacity="1.0" transform="translate(1057.85,253.00) scale(0.15000,-0.15000)"/><path d="M233 565V423H462V291H233V137H492V0H62V702H492V565Z" fill="#11151C" fill-opacity="1.0" transform="translate(1178.15,253.00) scale(0.15000,-0.15000)"/>
<path d="M524 695V602H339V0H225V602H39V695Z" fill="#5A6470" fill-opacity="1.0" transform="translate(504.00,327.00) scale(0.03300,-0.03300)"/><path d="M436 0 276 278H189V0H75V695H315Q395 695 450.5 667.0Q506 639 533.5 592.0Q561 545 561 487Q561 419 521.5 363.5Q482 308 400 288L572 0ZM189 369H315Q379 369 411.5 401.0Q444 433 444 487Q444 541 412.0 571.5Q380 602 315 602H189Z" fill="#5A6470" fill-opacity="1.0" transform="translate(529.61,327.00) scale(0.03300,-0.03300)"/><path d="M494 142H203L153 0H34L283 696H415L664 0H544ZM462 235 349 558 235 235Z" fill="#5A6470" fill-opacity="1.0" transform="translate(557.47,327.00) scale(0.03300,-0.03300)"/><path d="M189 695V0H75V695Z" fill="#5A6470" fill-opacity="1.0" transform="translate(587.47,327.00) scale(0.03300,-0.03300)"/><path d="M646 0H532L189 519V0H75V696H189L532 178V696H646Z" fill="#5A6470" fill-opacity="1.0" transform="translate(603.18,327.00) scale(0.03300,-0.03300)"/><path d="M52 335Q52 366 73.0 387.0Q94 408 125 408Q155 408 176.0 387.0Q197 366 197 335Q197 304 176.0 283.0Q155 262 125 262Q94 262 73.0 283.0Q52 304 52 335Z" fill="#5A6470" fill-opacity="1.0" transform="translate(651.53,327.00) scale(0.03300,-0.03300)"/><path d="M524 695V602H339V0H225V602H39V695Z" fill="#5A6470" fill-opacity="1.0" transform="translate(684.15,327.00) scale(0.03300,-0.03300)"/><path d="M436 0 276 278H189V0H75V695H315Q395 695 450.5 667.0Q506 639 533.5 592.0Q561 545 561 487Q561 419 521.5 363.5Q482 308 400 288L572 0ZM189 369H315Q379 369 411.5 401.0Q444 433 444 487Q444 541 412.0 571.5Q380 602 315 602H189Z" fill="#5A6470" fill-opacity="1.0" transform="translate(709.76,327.00) scale(0.03300,-0.03300)"/><path d="M494 142H203L153 0H34L283 696H415L664 0H544ZM462 235 349 558 235 235Z" fill="#5A6470" fill-opacity="1.0" transform="translate(737.61,327.00) scale(0.03300,-0.03300)"/><path d="M392 704Q503 704 589.5 649.5Q676 595 715 495H578Q551 550 503.0 577.0Q455 604 392 604Q323 604 269.0 573.0Q215 542 184.5 484.0Q154 426 154 349Q154 272 184.5 214.0Q215 156 269.0 124.5Q323 93 392 93Q455 93 503.0 120.0Q551 147 578 202H715Q676 102 589.5 48.0Q503 -6 392 -6Q294 -6 213.0 39.5Q132 85 84.5 166.0Q37 247 37 349Q37 451 84.5 532.0Q132 613 213.5 658.5Q295 704 392 704Z" fill="#5A6470" fill-opacity="1.0" transform="translate(767.61,327.00) scale(0.03300,-0.03300)"/><path d="M458 0 189 311V0H75V695H189V378L459 695H602L300 347L607 0Z" fill="#5A6470" fill-opacity="1.0" transform="translate(800.12,327.00) scale(0.03300,-0.03300)"/><path d="M52 335Q52 366 73.0 387.0Q94 408 125 408Q155 408 176.0 387.0Q197 366 197 335Q197 304 176.0 283.0Q155 262 125 262Q94 262 73.0 283.0Q52 304 52 335Z" fill="#5A6470" fill-opacity="1.0" transform="translate(845.57,327.00) scale(0.03300,-0.03300)"/><path d="M436 0 276 278H189V0H75V695H315Q395 695 450.5 667.0Q506 639 533.5 592.0Q561 545 561 487Q561 419 521.5 363.5Q482 308 400 288L572 0ZM189 369H315Q379 369 411.5 401.0Q444 433 444 487Q444 541 412.0 571.5Q380 602 315 602H189Z" fill="#5A6470" fill-opacity="1.0" transform="translate(878.18,327.00) scale(0.03300,-0.03300)"/><path d="M189 603V399H429V306H189V93H459V0H75V696H459V603Z" fill="#5A6470" fill-opacity="1.0" transform="translate(906.04,327.00) scale(0.03300,-0.03300)"/><path d="M315 282H189V0H75V695H315Q395 695 450.5 667.5Q506 640 533.5 593.0Q561 546 561 488Q561 435 536.0 388.0Q511 341 456.0 311.5Q401 282 315 282ZM444 488Q444 602 315 602H189V375H315Q380 375 412.0 404.5Q444 434 444 488Z" fill="#5A6470" fill-opacity="1.0" transform="translate(930.33,327.00) scale(0.03300,-0.03300)"/><path d="M37 349Q37 451 84.5 532.0Q132 613 213.5 658.5Q295 704 392 704Q490 704 571.5 658.5Q653 613 700.0 532.0Q747 451 747 349Q747 247 700.0 165.5Q653 84 571.5 38.5Q490 -7 392 -7Q295 -7 213.5 38.5Q132 84 84.5 165.5Q37 247 37 349ZM630 349Q630 426 599.5 484.0Q569 542 515.0 573.0Q461 604 392 604Q323 604 269.0 573.0Q215 542 184.5 484.0Q154 426 154 349Q154 272 184.5 213.5Q215 155 269.0 123.5Q323 92 392 92Q461 92 515.0 123.5Q569 155 599.5 213.5Q630 272 630 349Z" fill="#5A6470" fill-opacity="1.0" transform="translate(956.97,327.00) scale(0.03300,-0.03300)"/><path d="M436 0 276 278H189V0H75V695H315Q395 695 450.5 667.0Q506 639 533.5 592.0Q561 545 561 487Q561 419 521.5 363.5Q482 308 400 288L572 0ZM189 369H315Q379 369 411.5 401.0Q444 433 444 487Q444 541 412.0 571.5Q380 602 315 602H189Z" fill="#5A6470" fill-opacity="1.0" transform="translate(989.84,327.00) scale(0.03300,-0.03300)"/><path d="M524 695V602H339V0H225V602H39V695Z" fill="#5A6470" fill-opacity="1.0" transform="translate(1017.70,327.00) scale(0.03300,-0.03300)"/>
</svg>